Coordinates
version=1
nRows=17
nColumns=17
inDegrees=yes

Units are S.I. units (second, meters, Newtons, ...)
If the header above contains a line with 'inDegrees', this indicates whether rotational values are in degrees (yes) or radians (no).

endheader
time	pelvis_tilt	pelvis_tx	pelvis_ty	hip_flexion_l	hip_flexion_r	knee_angle_l	knee_angle_r	ankle_angle_l	ankle_angle_r	lumbar_extension	FC_flexion	FC_adduction	FC_rotation	FC_tx	FC_ty	FC_tz
      1.45000000	    103.23741030	     -0.30230811	      1.04678635	     -1.81161193	    -15.73560332	    -12.59596771	     -1.12608190	    -18.81994717	    -49.51542129	    -28.00551041	     82.88266721	     43.34040232	     94.05388387	      0.05706630	     -0.01741800	     -0.19862040
      1.46000000	    103.22572036	     -0.30233576	      1.04681583	     -1.80077768	    -15.74479903	    -12.68844059	     -1.08413225	    -18.73417163	    -49.51618822	    -27.99754072	     82.93894365	     43.34483977	     94.07498319	      0.05786708	     -0.01699367	     -0.19861826
      1.47000000	    103.18995824	     -0.30232462	      1.04680247	     -1.74942152	    -15.68727162	    -12.64506570	     -1.11982674	    -18.90657682	    -49.51154671	    -27.95245459	     83.11890119	     43.35414154	     94.08505013	      0.05776371	     -0.01669072	     -0.19862567
      1.48000000	    103.18732379	     -0.30232157	      1.04677203	     -1.75254999	    -15.68230577	    -12.63538780	     -1.12245562	    -18.88258976	    -49.51147477	    -27.95630888	     83.14325511	     43.36261822	     94.11177753	      0.05787795	     -0.01656601	     -0.19863304
      1.49000000	    103.19448461	     -0.30235547	      1.04675591	     -1.73640406	    -15.68109467	    -12.64180922	     -1.13834152	    -18.87228309	    -49.51108568	    -27.96499286	     83.16668905	     43.38319984	     94.14992843	      0.05774928	     -0.01656132	     -0.19861922
      1.50000000	    103.18989468	     -0.30233431	      1.04674769	     -1.73794116	    -15.67680750	    -12.62610960	     -1.13284151	    -18.85285098	    -49.50989360	    -27.96745940	     83.18566134	     43.37987390	     94.17069157	      0.05784493	     -0.01639473	     -0.19861255
      1.51000000	    103.18492215	     -0.30233020	      1.04679745	     -1.74524093	    -15.67430348	    -12.61493981	     -1.13433842	    -18.82074096	    -49.50905498	    -27.96465425	     83.21347294	     43.38792914	     94.20150421	      0.05794181	     -0.01625025	     -0.19862134
      1.52000000	    103.18830515	     -0.30235385	      1.04676082	     -1.72488417	    -15.68896901	    -12.64654561	     -1.11045142	    -18.78831466	    -49.50462530	    -27.96198823	     83.23495639	     43.39013180	     94.21690663	      0.05803679	     -0.01615194	     -0.19860971
      1.53000000	    103.19149754	     -0.30236819	      1.04676441	     -1.72138913	    -15.69223424	    -12.65439164	     -1.11781239	    -18.73518233	    -49.50237500	    -27.95803417	     83.26764212	     43.40292180	     94.22765263	      0.05802675	     -0.01615625	     -0.19858205
      1.54000000	    103.18268496	     -0.30236588	      1.04677059	     -1.71218347	    -15.67354146	    -12.65639552	     -1.13155375	    -18.58421563	    -49.45680395	    -27.94454792	     83.19746937	     43.39094938	     94.20971847	      0.05794449	     -0.01635426	     -0.19860783
      1.55000000	    103.16067453	     -0.30236834	      1.04675547	     -1.69042097	    -15.65419384	    -12.72786284	     -1.12320004	    -18.32765670	    -49.45054636	    -27.93279785	     83.08157079	     43.40198748	     94.22517951	      0.05832628	     -0.01653007	     -0.19859983
      1.56000000	    102.68501779	     -0.30245218	      1.04641158	     -0.89765824	    -15.00591755	    -13.09003160	     -1.30319335	    -18.38045377	    -49.72407928	    -27.50028301	     83.25158612	     43.40985200	     94.23020726	      0.05827330	     -0.01715222	     -0.19860972
      1.57000000	    103.05876517	     -0.30243926	      1.04669838	     -1.39411429	    -15.51909693	    -12.45104233	     -1.14632117	    -19.40005262	    -49.56863805	    -27.84418924	     83.86398894	     43.41768838	     94.20932146	      0.05536397	     -0.01639190	     -0.19866830
      1.58000000	    103.05054398	     -0.30242146	      1.04668878	     -1.41004632	    -15.50835371	    -12.43883556	     -1.14725059	    -19.36533662	    -49.56841156	    -27.84383635	     83.88992626	     43.42530473	     94.23918243	      0.05568723	     -0.01604567	     -0.19865811
      1.59000000	    103.05636620	     -0.30241974	      1.04670193	     -1.41259112	    -15.50791317	    -12.38588026	     -1.16666771	    -19.34588732	    -49.56507556	    -27.83871104	     83.89588295	     43.44575656	     94.25669735	      0.05533981	     -0.01611342	     -0.19867008
      1.60000000	    103.06338476	     -0.30243391	      1.04670398	     -1.43447193	    -15.51458012	    -12.41073835	     -1.16971913	    -19.09796701	    -49.56385996	    -27.83982301	     83.76571932	     43.44851504	     94.27264072	      0.05552359	     -0.01625511	     -0.19873828
      1.61000000	    103.06211180	     -0.30242909	      1.04672009	     -1.43128664	    -15.51857996	    -12.41306295	     -1.15646025	    -19.06140553	    -49.56165579	    -27.84497980	     83.79847382	     43.50081881	     94.30645686	      0.05570509	     -0.01606975	     -0.19880714
